<svg width="1039" height="667" viewBox="0 0 1039 667" fill="none" xmlns="http://www.w3.org/2000/svg">
<g id="Frame 6">
<g id="Group 35">
<g id="Group 36">
<path id="Vector 7" d="M340.451 523.659C728.62 490.132 861.948 183.873 1039 166.078V667H29.5068C69.6393 603.471 156.338 539.561 340.451 523.659Z" fill="#C1D3FE"/>
<path id="Vector 6" d="M639.454 399.974C716.5 360.5 772.5 351 864.5 315.154C955.612 279.654 1000.47 237.886 1039 186.028V667H129.727C209.553 646.989 306.75 622.299 376 589.162C511.5 524.324 562.407 439.448 639.454 399.974Z" fill="#D7E3FC"/>
<g id="Group 43">
<circle id="Ellipse 15" cx="320.5" cy="527.5" r="22.5" fill="url(#paint0_linear)"/>
<circle id="Ellipse 16" cx="290.5" cy="516.5" r="22.5" fill="url(#paint1_linear)"/>
<circle id="Ellipse 20" cx="111.5" cy="584.5" r="22.5" fill="url(#paint2_linear)"/>
<circle id="Ellipse 19" cx="290.5" cy="539.5" r="22.5" fill="url(#paint3_linear)"/>
<circle id="Ellipse 17" cx="82.5" cy="604.5" r="22.5" fill="url(#paint4_linear)"/>
<circle id="Ellipse 18" cx="986.5" cy="181.5" r="22.5" fill="url(#paint5_linear)"/>
</g>
</g>
<g id="Group 27">
<path id="Vector" d="M454 227.293C454 247.202 451.459 266.529 446.644 284.965C444.594 292.821 442.142 300.498 439.289 307.998C432.201 326.611 422.794 344.064 411.337 360H42.7074C15.8258 322.683 0 276.841 0 227.293C0 101.773 101.642 0 227 0C352.358 0 454 101.773 454 227.293Z" fill="#D7E3FC"/>
<g id="Group">
<path id="Vector_2" d="M219.718 53.6919V211.378C219.718 217.577 224.757 222.616 230.956 222.616H329.287C335.485 222.616 340.525 217.577 340.525 211.378V53.6919C340.525 47.4933 335.485 42.4541 329.287 42.4541H230.956C224.757 42.4541 219.718 47.4933 219.718 53.6919Z" fill="#798B9D"/>
<g id="Group_2">
<g id="Group_3">
<g id="Group_4">
<g id="Group_5">
<path id="Vector_3" d="M275.416 67.0703V73.3135H289.285V78.7095H275.416V85.0865H291.292V90.4825H268.95V61.7635H290.802V67.1595H275.416V67.0703Z" fill="#D7E3FC"/>
</g>
</g>
</g>
</g>
<g id="Group_6">
<g id="Group_7">
<g id="Group_8">
<g id="Group_9">
<path id="Vector_4" d="M255.466 109.396V116.442H268.443V121.838H255.466V132.719H249V104H269.647L269.603 109.396H255.466Z" fill="#D7E3FC"/>
</g>
</g>
<g id="Group_10">
<g id="Group_11">
<path id="Vector_5" d="M302.38 104C309.693 104 313.885 107.612 313.885 113.989C313.885 120.678 309.693 124.514 302.38 124.514H296.672V132.719H290.206V104H302.38ZM296.672 119.118H302.068C305.68 119.118 307.731 117.468 307.731 114.212C307.731 111.001 305.68 109.396 302.068 109.396H296.672V119.118Z" fill="#D7E3FC"/>
</g>
</g>
</g>
</g>
<g id="Group_12">
<g id="Group_13">
<g id="Group_14">
<g id="Group_15">
<path id="Vector_6" d="M246.207 151.708V174.942H239.741V151.708H231V146.223H254.992V151.708H246.207Z" fill="#D7E3FC"/>
</g>
</g>
<g id="Group_16">
<g id="Group_17">
<path id="Vector_7" d="M296.509 160.582C296.509 168.877 289.865 175.209 281.08 175.209C272.294 175.209 265.65 168.877 265.65 160.582C265.65 152.199 272.294 146 281.08 146C289.865 146 296.509 152.243 296.509 160.582ZM272.294 160.582C272.294 165.622 276.353 169.546 281.169 169.546C285.985 169.546 289.865 165.622 289.865 160.582C289.865 155.543 285.985 151.664 281.169 151.664C276.308 151.664 272.294 155.543 272.294 160.582Z" fill="#D7E3FC"/>
</g>
</g>
<g id="Group_18">
<g id="Group_19">
<path id="Vector_8" d="M318.406 169.546H334.683L334.638 174.942H309.665V170.572L325.764 151.664H310.2V146.223H334.46V150.593L318.406 169.546Z" fill="#D7E3FC"/>
</g>
</g>
</g>
</g>
<path id="Vector_9" d="M333.727 189H230V194.307H333.727V189Z" fill="#D7E3FC"/>
</g>
<g id="Group_20">
<path id="Vector_10" d="M446.749 284.647C444.697 292.496 442.245 300.166 439.391 307.658H300.701C295.35 307.658 291.024 303.332 291.024 297.981V294.324C291.024 288.973 295.35 284.647 300.701 284.647H446.749Z" fill="#4D5A67"/>
<path id="Vector_11" d="M439.391 307.703C432.3 326.299 422.891 343.735 411.43 359.655H305.741V307.703H439.391Z" fill="#798B9D"/>
</g>
<g id="Group_21">
<path id="Vector_12" d="M7.44727 284.647C9.49862 292.496 11.9513 300.166 14.8054 307.658H153.495C158.846 307.658 163.172 303.332 163.172 297.981V294.324C163.172 288.973 158.846 284.647 153.495 284.647H7.44727Z" fill="#4D5A67"/>
<path id="Vector_13" d="M14.8052 307.703C21.8957 326.299 31.3052 343.735 42.766 359.655H148.455V307.703H14.8052Z" fill="#798B9D"/>
</g>
<g id="Group_22">
<path id="Vector_14" d="M435.199 279.965H430.516C427.93 279.965 425.834 282.061 425.834 284.647H439.881C439.881 282.061 437.785 279.965 435.199 279.965Z" fill="black"/>
<g id="Group_23">
<path id="Vector_15" d="M439.034 263.822H350.112C346.009 263.822 342.709 260.477 342.709 256.419V200.14C342.709 196.038 346.054 192.738 350.112 192.738H438.989C443.092 192.738 446.392 196.082 446.392 200.14V256.374C446.437 260.477 443.137 263.822 439.034 263.822Z" fill="black"/>
<path id="Vector_16" d="M438.979 256.364V200.22L350.147 200.22V256.364H438.979Z" fill="#CCDAFF"/>
<path id="Vector_17" d="M407.015 284.647H382.131L384.271 263.822H404.874L407.015 284.647Z" fill="#0D0636"/>
<path id="Vector_18" d="M411.474 279.965H377.671V284.692H411.474V279.965Z" fill="black"/>
<g id="Group 34">
<path id="Vector_19" d="M418.431 227.789C416.023 227.789 413.749 227.031 411.831 225.649C411.341 225.292 411.252 224.623 411.608 224.177C411.965 223.731 412.634 223.597 413.08 223.954C414.641 225.069 416.469 225.693 418.387 225.693C418.967 225.693 419.457 226.184 419.457 226.764C419.502 227.299 419.056 227.789 418.431 227.789ZM424.407 225.872C424.095 225.872 423.738 225.738 423.56 225.426C423.203 224.935 423.337 224.266 423.783 223.954C425.344 222.839 426.503 221.234 427.083 219.45C427.261 218.87 427.885 218.603 428.421 218.781C429 218.959 429.268 219.584 429.089 220.119C428.376 222.349 426.904 224.311 424.987 225.693C424.853 225.782 424.63 225.872 424.407 225.872ZM408.844 220.743C408.398 220.743 407.996 220.476 407.818 219.985C407.461 218.87 407.283 217.711 407.283 216.551C407.283 215.347 407.461 214.188 407.818 213.073C407.996 212.493 408.621 212.226 409.156 212.404C409.735 212.582 410.003 213.207 409.825 213.742C409.512 214.634 409.379 215.615 409.379 216.551C409.379 217.488 409.512 218.469 409.825 219.361C410.003 219.941 409.691 220.52 409.156 220.699C409.067 220.743 408.933 220.743 408.844 220.743ZM428.108 214.545C427.662 214.545 427.261 214.277 427.083 213.787C426.503 212.003 425.344 210.353 423.783 209.238C423.292 208.881 423.203 208.212 423.56 207.766C423.917 207.276 424.585 207.187 425.031 207.543C426.949 208.926 428.376 210.932 429.089 213.162C429.268 213.742 428.956 214.322 428.421 214.5C428.331 214.5 428.242 214.545 428.108 214.545ZM412.5 209.416C412.188 209.416 411.831 209.282 411.653 208.97C411.296 208.48 411.43 207.811 411.876 207.499C413.794 206.116 416.068 205.358 418.476 205.358C419.056 205.358 419.546 205.849 419.546 206.428C419.546 207.008 419.1 207.499 418.521 207.499H418.476C416.558 207.499 414.73 208.078 413.169 209.238C412.946 209.372 412.723 209.416 412.5 209.416Z" fill="black"/>
<g id="Group_24">
<path id="Vector_20" d="M395.821 213.385H374.684V215.882H395.821V213.385Z" fill="black"/>
<path id="Vector_21" d="M395.821 223.33H374.684V225.827H395.821V223.33Z" fill="black"/>
<path id="Vector_22" d="M395.821 233.319H374.684V235.816H395.821V233.319Z" fill="black"/>
<path id="Vector_23" d="M395.821 243.308H374.684V245.805H395.821V243.308Z" fill="black"/>
</g>
<path id="Vector_24" d="M432.835 240.811H412.322C412.01 240.811 411.787 240.588 411.787 240.276C411.787 239.964 412.01 239.741 412.322 239.741H432.3V217.131C432.3 216.819 432.523 216.596 432.835 216.596C433.147 216.596 433.37 216.819 433.37 217.131V240.276C433.37 240.543 433.147 240.811 432.835 240.811Z" fill="black"/>
<path id="Vector_25" d="M412.322 242.951C413.799 242.951 414.997 241.753 414.997 240.276C414.997 238.798 413.799 237.6 412.322 237.6C410.844 237.6 409.646 238.798 409.646 240.276C409.646 241.753 410.844 242.951 412.322 242.951Z" fill="black"/>
</g>
</g>
</g>
<g id="Group_25">
<g id="Group_26">
<path id="Vector_26" d="M23.0552 210.353C23.2781 210.308 23.5457 210.263 23.6795 210.219C23.5457 210.219 23.3227 210.263 23.0552 210.353Z" fill="#D7E3FC"/>
<path id="Vector_27" d="M22.6982 210.397C22.832 210.353 22.9658 210.353 23.0996 210.308C22.9212 210.353 22.7874 210.397 22.6982 210.397Z" fill="#D7E3FC"/>
<path id="Vector_28" d="M21.6728 210.62C21.6282 210.62 21.5837 210.62 21.5391 210.665C21.5837 210.62 21.6282 210.62 21.6728 210.62Z" fill="#D7E3FC"/>
<path id="Vector_29" d="M22.1185 210.531C21.9401 210.576 21.7617 210.62 21.6279 210.62C21.7617 210.576 21.9401 210.531 22.1185 210.531Z" fill="#D7E3FC"/>
<path id="Vector_30" d="M21.539 210.62C21.4498 210.665 21.4052 210.665 21.539 210.62V210.62Z" fill="#D7E3FC"/>
<path id="Vector_31" d="M23.7686 210.219C23.8131 210.219 23.9023 210.219 23.9023 210.174C23.8577 210.174 23.8131 210.174 23.7686 210.219Z" fill="#D7E3FC"/>
<path id="Vector_32" d="M39.5997 227.789C37.6821 225.203 37.2808 222.036 35.8538 219.182C32.9551 213.385 27.1578 209.55 22.1632 210.531C22.297 210.486 22.4754 210.486 22.6538 210.442C22.52 210.486 22.3416 210.486 22.1632 210.531C22.1186 210.531 22.1186 210.531 22.074 210.531C22.1186 210.531 22.1186 210.531 22.1632 210.531C15.2511 211.869 15.9646 219.272 20.5132 224.98C22.3416 227.299 24.3483 229.528 24.5267 232.784C24.6605 235.95 22.9659 237.689 24.3038 241.123C26.6227 247.009 33.0443 247.767 35.274 254.011C36.4781 257.4 36.4335 264.178 39.5997 266.23C44.8619 269.663 46.9132 260.745 46.2889 256.196C45.7984 252.851 44.8173 249.596 44.8173 246.251C44.8619 242.595 46.4673 238.804 45.2632 234.969C44.2375 231.49 41.5173 230.376 39.5997 227.789Z" fill="#798B9D"/>
<path id="Vector_33" d="M23.9468 210.174C24.036 210.13 24.0806 210.13 23.9468 210.174V210.174Z" fill="#D7E3FC"/>
</g>
<path id="Vector_34" d="M69.5673 219.495C65.3308 210.576 57.8389 215.927 53.5132 221.278C51.2389 224.043 49.0092 225.515 46.3335 227.611C42.7214 230.42 44.416 232.338 44.0592 236.441C43.7024 240.365 41.0268 243.754 41.1159 247.768C41.2051 251.737 43.8808 252.361 46.066 255.037C48.5187 257.98 46.9578 260.789 47.9389 264.178C48.697 266.854 50.57 268.103 52.5322 269.797C53.2457 270.377 55.52 273.142 56.4119 273.142C59.5335 273.097 57.4822 267.969 56.8578 266.587C54.7619 262.216 54.8957 261.369 57.17 257.4C59.4443 253.387 57.0808 252.049 54.9403 248.749C52.8443 245.582 53.5578 243.799 56.2781 241.435C57.1254 240.722 58.3295 240.231 59.043 239.295C60.5146 237.466 60.0241 236.262 60.47 234.077C61.9416 226.987 74.2943 229.439 69.5673 219.495C70.6822 221.769 68.6754 217.577 69.5673 219.495Z" fill="#798B9D"/>
<path id="Vector_35" d="M80.1362 230.822C76.0335 227.923 70.0578 228.19 66.0889 231.267C64.1268 232.784 63.0565 234.969 60.7376 236.084C58.4187 237.199 55.7876 236.797 54.0484 238.938C52.0862 241.301 52.5768 244.824 51.7295 247.589C50.9714 250.131 49.2768 252.093 48.0727 254.368C46.4227 257.489 46.066 265.115 51.5065 264.847C54.7619 264.713 56.3673 259.585 58.2403 257.578C61.7187 253.877 67.4714 256.151 70.9051 252.762C72.9119 250.8 71.8416 248.749 72.6889 246.43C73.6254 244.022 75.8997 243.263 78.0849 242.327C83.4362 240.142 85.8443 234.88 80.1362 230.822C82.8119 232.739 75.6768 227.655 80.1362 230.822Z" fill="#4D5A67"/>
<path id="Vector_36" d="M44.862 248.303C42.3647 246.43 39.8228 246.341 38.5295 243.13C37.6376 240.9 38.3511 238.046 36.8795 236.039C34.9174 233.408 31.9741 234.3 29.2092 233.988C25.8647 233.631 23.4565 231.58 20.3795 230.509C15.3849 228.77 6.82277 229.484 4.37006 235.103C3.38898 237.422 4.0579 240.722 6.68898 241.613C9.58763 242.639 11.5052 239.874 13.9579 242.595C15.9647 244.78 15.162 247.009 18.5066 248.258C21.4944 249.373 24.616 248.347 27.693 248.392C36.2998 248.526 32.643 254.68 35.6309 260.12C38.039 264.535 40.4917 264.624 44.5052 262.127C46.6011 260.789 46.7795 260.12 47.3147 257.177C47.8052 254.1 47.6268 250.354 44.862 248.303C46.7349 249.73 43.212 247.054 44.862 248.303Z" fill="#4D5A67"/>
<path id="Vector_37" d="M62.3432 259.273H25.9986C24.2148 259.273 22.7432 260.745 22.7432 262.528C22.7432 264.312 24.2148 265.784 25.9986 265.784H26.9797L31.2607 284.692H57.1256L61.4067 265.784H62.3878C64.1715 265.784 65.6432 264.312 65.6432 262.528C65.5986 260.7 64.127 259.273 62.3432 259.273Z" fill="#798B9D"/>
</g>
<g id="Group_27">
<g id="Group_28">
<g id="Group_29">
<path id="Vector_38" d="M222.8 320.701C222.358 322.337 221.036 323.643 219.277 324L192.589 329.27C190.103 329.754 187.721 328.141 187.237 325.655C186.753 323.169 188.366 320.787 190.852 320.303L217.539 315.032C220.026 314.548 222.408 316.161 222.892 318.647C222.976 319.363 222.974 320.055 222.8 320.701Z" fill="#D2986B"/>
<path id="Vector_39" d="M228.985 325.439C227.986 326.58 226.446 327.188 224.852 326.978L208.026 324.397L204.683 338.777C204.12 341.248 201.661 342.77 199.191 342.207C196.72 341.644 195.198 339.185 195.761 336.715L200.062 318.194C200.604 315.883 202.84 314.344 205.202 314.693L226.21 317.912C228.702 318.316 230.404 320.636 230.064 323.124C229.933 324.017 229.543 324.802 228.985 325.439Z" fill="#F1B17C"/>
<path id="Vector_40" d="M246.067 327.764C245.928 328.281 245.745 328.786 245.434 329.256L232.806 348.666C231.447 350.794 228.613 351.369 226.485 350.01C224.358 348.65 223.783 345.816 225.142 343.689L237.77 324.278C239.129 322.151 241.963 321.576 244.091 322.935C245.748 323.983 246.469 325.933 246.067 327.764Z" fill="#F1B17C"/>
<path id="Vector_41" d="M230.978 333.531C237.709 336.317 246.776 337.978 252.863 329.967C250.915 319.557 249.613 315.649 249.613 315.649C249.613 315.649 235.179 307.69 220.798 313.741C211.529 319.507 208.909 328.362 209.451 327.723C209.992 327.084 224.452 328.445 230.978 333.531Z" fill="#F1B17C"/>
</g>
<path id="Vector_42" d="M336.514 271.468C335.543 274.387 334.332 277.322 332.938 280.242C318.97 308.682 285.675 328.392 233.984 338.837L228.932 313.753C252.902 308.941 272.217 302.017 286.369 293.235C297.561 286.289 305.494 278.118 309.986 268.991C319.632 249.311 311.874 227.699 306.352 216.604L329.302 205.25C336.081 219.065 345.351 244.893 336.514 271.468Z" fill="#DEE2DF"/>
</g>
<g id="Group_30">
<path id="Vector_43" d="M106.938 171.422V268.192H156.794C167.319 268.192 175.836 259.674 175.836 249.15V171.422H106.938Z" fill="#F9AC78"/>
<g id="Group_31">
<path id="Vector_44" d="M165.401 208.078C162.993 208.078 161.075 210.041 161.075 212.404V219.004C161.075 221.412 163.037 223.33 165.401 223.33C167.764 223.33 169.727 221.368 169.727 219.004V212.404C169.727 210.041 167.809 208.078 165.401 208.078Z" fill="#483735"/>
<path id="Vector_45" d="M152.781 205.804C151.265 205.804 149.927 204.689 149.704 203.128C149.481 201.434 150.64 199.873 152.335 199.605L171.065 196.974C172.759 196.751 174.32 197.911 174.587 199.605C174.81 201.3 173.651 202.861 171.956 203.128L153.227 205.759C153.048 205.759 152.915 205.804 152.781 205.804Z" fill="#483735"/>
</g>
<path id="Vector_46" d="M175.792 232.204C178.994 232.204 181.589 229.609 181.589 226.407C181.589 223.205 178.994 220.609 175.792 220.609C172.59 220.609 169.995 223.205 169.995 226.407C169.995 229.609 172.59 232.204 175.792 232.204Z" fill="#F9AC78"/>
<path id="Vector_47" d="M149.231 252.107L115.748 232.775L93.919 270.583L127.402 289.915L149.231 252.107Z" fill="#F9AC78"/>
<path id="Vector_48" d="M125.221 187.565C140.651 194.388 185.112 193.139 198.133 155.011C184.086 130.082 126.559 118.086 104.262 161.12C103.638 153.985 101.14 149.035 88.1186 150.551C99.2673 154.565 102.701 163.038 102.701 163.038C102.701 163.038 94.6294 165.446 88.1186 161.7C88.7429 166.338 97.1267 166.962 101.452 166.026C71.9754 178.735 82.9456 223.374 106.938 236.351C120.583 236.351 121.832 236.351 121.832 236.351L125.221 187.565Z" fill="#483735"/>
<path id="Vector_49" d="M114.831 178.869C113.137 178.869 111.442 179.047 109.792 179.315V235.37C111.442 235.682 113.092 235.816 114.831 235.816C130.573 235.816 143.327 223.062 143.327 207.32C143.327 191.623 130.573 178.869 114.831 178.869Z" fill="#483735"/>
<path id="Vector_50" d="M125.578 240.409C132.4 240.409 137.931 234.879 137.931 228.057C137.931 221.235 132.4 215.704 125.578 215.704C118.756 215.704 113.226 221.235 113.226 228.057C113.226 234.879 118.756 240.409 125.578 240.409Z" fill="#F9AC78"/>
<path id="Vector_51" d="M131.286 302.976C128.343 307.97 125.712 314.035 123.482 320.813C119.781 332.185 117.239 345.563 116.526 359.388C116.526 359.477 116.526 359.566 116.526 359.611H59.9351C60.158 353.368 60.6486 347.124 61.4513 340.792C64.6175 315.774 72.1094 292.184 82.5445 274.346C86.3796 267.835 92.3999 263.42 99.0891 261.503C101.631 260.789 104.217 260.388 106.893 260.388C111.754 260.388 116.704 261.636 121.208 264.268C123.126 265.382 124.82 266.676 126.381 268.147C129.681 271.269 132.089 275.059 133.516 279.207C136.236 286.832 135.657 295.484 131.286 302.976Z" fill="#1B668F"/>
</g>
<g id="Group_32">
<path id="Vector_52" d="M347.794 164.599V261.369H297.981C287.457 261.369 278.939 252.851 278.939 242.327V164.599H347.794Z" fill="#F1B17C"/>
<g id="Group_33">
<path id="Vector_53" d="M289.33 201.255C291.738 201.255 293.656 203.218 293.656 205.581V212.181C293.656 214.589 291.694 216.507 289.33 216.507C286.922 216.507 285.004 214.545 285.004 212.181V205.581C285.004 203.218 286.922 201.255 289.33 201.255Z" fill="#2C414C"/>
<path id="Vector_54" d="M301.589 199.686C303.11 199.798 304.511 198.78 304.864 197.249C305.219 195.578 304.191 193.937 302.534 193.54L284.062 189.463C282.39 189.108 280.749 190.135 280.352 191.792C279.997 193.464 281.024 195.105 282.682 195.502L301.154 199.579C301.28 199.624 301.448 199.683 301.589 199.686Z" fill="#A15125"/>
</g>
<path id="Vector_55" d="M327.333 283.079L360.815 263.747L338.986 225.939L305.504 245.271L327.333 283.079Z" fill="#F1B17C"/>
<path id="Vector_56" d="M356.222 247.812L362.376 260.254L320.011 281.169C315.685 283.309 311.271 280.634 311.092 275.818L310.289 270.645C310.2 268.058 311.672 265.65 313.991 264.49L351.183 246.118C353.011 245.181 355.285 245.939 356.222 247.812Z" fill="#CEE2DB"/>
<path id="Vector_57" d="M286.699 235.326H278.226C275.595 235.326 273.499 233.23 273.499 230.599V227.522C273.499 222.259 277.78 217.978 283.042 217.978H286.699V235.326Z" fill="#F1B17C"/>
<path id="Vector_58" d="M356.177 167.809C356.177 167.809 357.069 148.188 333.166 145.155C240.008 133.427 269.842 182.169 278.939 181.411C290.311 171.199 308.862 172.403 318.673 173.963C314.125 179.761 311.404 187.03 311.404 194.968C311.404 210.13 321.304 222.973 335.039 227.388C338.339 233.23 345.029 234.88 347.838 235.37C377.003 206.161 367.816 171.243 356.177 167.809Z" fill="#A15125"/>
<path id="Vector_59" d="M317.202 207.276C317.202 224.757 308.595 241.168 303.199 245.716C301.415 240.543 296.51 236.842 290.713 236.842H278.895V242.416C278.895 242.505 278.895 242.595 278.895 242.728H290.713C294.771 242.728 298.026 246.028 298.026 250.042V261.458H303.868C320.1 261.458 322.509 207.32 322.509 207.32C322.509 207.32 322.598 207.276 317.202 207.276Z" fill="#A15125"/>
<path id="Vector_60" d="M333.167 231.936C339.989 231.936 345.519 226.406 345.519 219.584C345.519 212.762 339.989 207.231 333.167 207.231C326.344 207.231 320.814 212.762 320.814 219.584C320.814 226.406 326.344 231.936 333.167 231.936Z" fill="#F1B17C"/>
</g>
<g id="Group_34">
<path id="Vector_61" d="M210.308 283.131H205.492V317.291H210.308V283.131Z" fill="#3B4752"/>
<path id="Vector_62" d="M217.755 313.545H198.044V328.484H217.755V313.545Z" fill="#C2C4C6"/>
<path id="Vector_63" d="M213.474 219.807H202.281V283.131H213.474V219.807Z" fill="#C2C4C6"/>
<path id="Vector_64" d="M199.65 245.181C197.91 245.181 196.216 244.245 195.369 242.595C194.164 240.231 195.101 237.332 197.42 236.128L230.464 219.138C232.828 217.934 235.727 218.87 236.931 221.189C238.135 223.553 237.198 226.451 234.879 227.655L201.835 244.646C201.121 245.047 200.363 245.181 199.65 245.181Z" fill="#657585"/>
<path id="Vector_65" d="M180.563 350.246V359.655H273.632V350.246C273.632 345.028 269.395 340.837 264.222 340.837H189.972C184.755 340.792 180.563 345.028 180.563 350.246Z" fill="#C2C4C6"/>
<path id="Vector_66" d="M279.296 201.345H264.267C262.662 201.345 261.324 202.638 261.324 204.288V212.805C261.324 214.411 262.617 215.749 264.267 215.749H279.296C280.901 215.749 282.239 214.455 282.239 212.805V204.288C282.239 202.682 280.946 201.345 279.296 201.345Z" fill="#3B4752"/>
<path id="Vector_67" d="M267.121 198.803H248.48V228.057H267.121V198.803Z" fill="#758393"/>
<path id="Vector_68" d="M255.304 340.792H193.139C189.616 340.792 186.762 337.938 186.762 334.415C186.762 330.892 189.616 328.038 193.139 328.038H248.659L245.537 253.52L227.7 236.976C225.113 234.568 224.979 230.509 227.387 227.923C229.796 225.336 233.854 225.203 236.44 227.611L256.196 245.939C257.444 247.099 258.158 248.659 258.247 250.354L261.77 334.192C261.859 335.931 261.19 337.626 259.986 338.874C258.737 340.078 257.043 340.792 255.304 340.792Z" fill="#657585"/>
<path id="Vector_69" d="M221.055 214.5V233.007C221.055 234.88 222.571 236.396 224.444 236.396H245.136C247.009 236.396 248.525 234.88 248.525 233.007V211.155H224.444C222.571 211.111 221.055 212.627 221.055 214.5Z" fill="#3B4752"/>
<path id="Vector_70" d="M245.716 211.111H243.04V236.351H245.716V211.111Z" fill="#F16690"/>
<path id="Vector_71" d="M175.792 208.078V219.584H181.41C182.793 219.584 183.952 218.469 183.952 217.042V210.576C183.952 209.193 182.837 208.034 181.41 208.034H175.792V208.078Z" fill="#3B4752"/>
<path id="Vector_72" d="M138.957 123.572V347.035H147.697V123.572C147.697 120.941 145.735 118.8 143.327 118.8C140.919 118.755 138.957 120.896 138.957 123.572Z" fill="#3B4752"/>
<path id="Vector_73" d="M150.239 202.95H136.37V245.672H150.239V202.95Z" fill="#F8F8F9"/>
<path id="Vector_74" d="M192.648 167.007H138.555C136.147 167.007 134.14 168.969 134.14 171.422C134.14 173.83 136.102 175.836 138.555 175.836H192.648C195.056 175.836 197.063 173.874 197.063 171.422C197.063 168.969 195.101 167.007 192.648 167.007Z" fill="#F8F8F9"/>
<path id="Vector_75" d="M163.439 272.518H138.956C137.039 272.518 135.478 270.957 135.478 269.039C135.478 267.122 137.039 265.561 138.956 265.561H162.012L177.486 250.532C178.869 249.195 181.054 249.239 182.392 250.622C183.729 252.004 183.685 254.189 182.302 255.527L165.847 271.492C165.178 272.161 164.331 272.518 163.439 272.518Z" fill="#F8F8F9"/>
<path id="Vector_76" d="M154.074 347.035H132.624V359.655H154.074V347.035Z" fill="#758393"/>
<path id="Vector_77" d="M198.044 199.65V215.972C198.044 218.112 199.784 219.851 201.924 219.851H213.92C216.061 219.851 217.8 218.112 217.8 215.972V199.65C217.8 197.509 216.061 195.77 213.92 195.77H201.924C199.784 195.77 198.044 197.509 198.044 199.65Z" fill="#3B4752"/>
<path id="Vector_78" d="M207.9 291.693C213.343 291.693 217.755 287.281 217.755 281.838C217.755 276.395 213.343 271.982 207.9 271.982C202.457 271.982 198.044 276.395 198.044 281.838C198.044 287.281 202.457 291.693 207.9 291.693Z" fill="#F8F8F9"/>
<path id="Vector_79" d="M207.9 286.386C210.412 286.386 212.448 284.35 212.448 281.838C212.448 279.326 210.412 277.289 207.9 277.289C205.388 277.289 203.351 279.326 203.351 281.838C203.351 284.35 205.388 286.386 207.9 286.386Z" fill="#C2C4C6"/>
<g id="Group_35">
<path id="Vector_80" d="M274.034 279.965H267.122V292.63H274.034V279.965Z" fill="#4C5966"/>
<path id="Vector_81" d="M275.55 282.373H252.896C250.086 282.373 247.812 280.099 247.812 277.289C247.812 274.48 250.086 272.205 252.896 272.205H275.55C278.359 272.205 280.634 274.48 280.634 277.289C280.634 280.099 278.359 282.373 275.55 282.373Z" fill="#657585"/>
<path id="Vector_82" d="M262.261 288.928V308.907C262.261 310.289 263.376 311.449 264.803 311.449H276.397C277.78 311.449 278.939 310.334 278.939 308.907V288.928C278.939 287.546 277.824 286.386 276.397 286.386H264.803C263.42 286.386 262.261 287.501 262.261 288.928Z" fill="#3B4752"/>
</g>
<g id="Group_36">
<g id="Group_37">
<path id="Vector_83" d="M231.981 232.873C237.03 232.873 241.123 228.78 241.123 223.731C241.123 218.682 237.03 214.589 231.981 214.589C226.932 214.589 222.839 218.682 222.839 223.731C222.839 228.78 226.932 232.873 231.981 232.873Z" fill="#333E48"/>
<path id="Vector_84" d="M231.981 228.28C234.493 228.28 236.529 226.243 236.529 223.731C236.529 221.219 234.493 219.182 231.981 219.182C229.469 219.182 227.432 221.219 227.432 223.731C227.432 226.243 229.469 228.28 231.981 228.28Z" fill="#758393"/>
<path id="Vector_85" d="M231.981 226.273C233.385 226.273 234.523 225.135 234.523 223.731C234.523 222.327 233.385 221.189 231.981 221.189C230.577 221.189 229.439 222.327 229.439 223.731C229.439 225.135 230.577 226.273 231.981 226.273Z" fill="#C2C4C6"/>
</g>
<g id="Group_38">
<path id="Vector_86" d="M236.885 221.055C236.76 220.818 236.854 220.517 237.091 220.393L238.393 219.708C238.63 219.583 238.931 219.677 239.056 219.914C239.18 220.151 239.087 220.452 238.85 220.576L237.547 221.261C237.31 221.386 237.009 221.292 236.885 221.055Z" fill="#F8F8F9"/>
<path id="Vector_87" d="M233.318 218.295C233.256 218.176 233.233 218.037 233.271 217.917L233.701 216.532C233.776 216.291 234.053 216.146 234.293 216.22C234.534 216.295 234.68 216.572 234.605 216.813L234.174 218.198C234.099 218.439 233.823 218.584 233.582 218.509C233.482 218.511 233.38 218.413 233.318 218.295Z" fill="#F8F8F9"/>
<path id="Vector_88" d="M228.86 218.824L228.176 217.521C228.051 217.284 228.145 216.983 228.382 216.859C228.619 216.734 228.92 216.828 229.044 217.065L229.729 218.367C229.853 218.604 229.76 218.905 229.523 219.03C229.286 219.154 228.985 219.061 228.86 218.824Z" fill="#F8F8F9"/>
<path id="Vector_89" d="M224.675 221.98C224.613 221.862 224.59 221.723 224.628 221.602C224.703 221.362 224.979 221.216 225.22 221.291L226.605 221.722C226.846 221.797 226.991 222.073 226.916 222.314C226.841 222.555 226.565 222.7 226.324 222.625L224.939 222.195C224.819 222.157 224.717 222.059 224.675 221.98Z" fill="#F8F8F9"/>
<path id="Vector_90" d="M225.308 227.593C225.184 227.356 225.277 227.055 225.514 226.93L226.817 226.246C227.054 226.121 227.355 226.215 227.479 226.452C227.604 226.689 227.51 226.99 227.273 227.114L225.971 227.799C225.734 227.923 225.433 227.83 225.308 227.593Z" fill="#F8F8F9"/>
<path id="Vector_91" d="M229.746 231.054C229.684 230.935 229.661 230.796 229.699 230.676L230.13 229.29C230.204 229.05 230.481 228.904 230.722 228.979C230.963 229.054 231.108 229.33 231.033 229.571L230.602 230.956C230.527 231.197 230.251 231.343 230.01 231.268C229.91 231.27 229.809 231.172 229.746 231.054Z" fill="#F8F8F9"/>
<path id="Vector_92" d="M235.359 230.421L234.674 229.119C234.55 228.882 234.643 228.581 234.88 228.456C235.117 228.332 235.418 228.425 235.543 228.662L236.227 229.965C236.352 230.202 236.258 230.503 236.021 230.627C235.784 230.752 235.483 230.658 235.359 230.421Z" fill="#F8F8F9"/>
<path id="Vector_93" d="M237.435 225.552C237.372 225.434 237.35 225.294 237.387 225.174C237.462 224.933 237.738 224.788 237.979 224.863L239.364 225.294C239.605 225.368 239.75 225.645 239.676 225.886C239.601 226.127 239.324 226.272 239.083 226.197L237.698 225.766C237.599 225.768 237.497 225.67 237.435 225.552Z" fill="#F8F8F9"/>
</g>
</g>
</g>
<path id="Vector_94" d="M340.524 359.611H392.834C392.789 351.272 392.254 342.754 391.184 334.236C388.062 309.486 380.659 286.164 370.358 268.593C363.044 256.151 347.08 252.004 334.638 259.273C322.196 266.586 318.048 282.551 325.317 294.993C334.058 310.066 340.346 334.638 340.524 359.611Z" fill="#F1F7F4"/>
<path id="Vector_95" d="M276.397 338.295H270.779C262.707 338.295 256.107 344.85 256.107 352.966C256.107 356.623 259.095 359.611 262.752 359.611H291.025V352.966C291.069 344.85 284.514 338.295 276.397 338.295Z" fill="#F1B17C"/>
<path id="Vector_96" d="M285.316 363V337.403C340.97 337.403 351.361 327.815 353.189 324.872C356.356 319.832 350.425 307.346 345.207 296.331C344.672 295.216 343.958 293.611 343.156 291.827C340.257 285.316 343.289 277.735 349.8 274.926C356.222 272.161 363.714 275.104 366.523 281.481C367.192 282.997 367.816 284.38 368.307 285.361C376.379 302.351 385.565 321.572 374.862 338.562C364.026 355.686 337.269 363 285.316 363Z" fill="#DEE2DF"/>
<path id="Vector_97" d="M149.347 359.611H116.615C116.57 359.522 116.526 359.432 116.481 359.388C113.36 353.323 110.461 346.589 107.785 339.097C105.199 331.918 108.9 323.98 116.124 321.349C118.577 320.457 121.119 320.323 123.483 320.769C128.12 321.661 132.134 324.916 133.873 329.643C138.466 342.397 143.818 352.699 149.347 359.611Z" fill="#F9AC78"/>
<path id="Vector_98" d="M118.8 345.787C111.486 345.787 104.708 341.149 102.344 333.835C96.4578 315.819 93.4254 298.918 92.5781 289.909C91.6862 280.366 98.7322 271.938 108.231 271.091C117.774 270.199 126.202 277.245 127.05 286.743C127.585 292.541 129.904 306.722 135.255 323.088C138.198 332.185 133.248 341.951 124.151 344.939C122.367 345.519 120.584 345.787 118.8 345.787Z" fill="#004E71"/>
</g>
</g>
</g>
</g>
<defs>
<linearGradient id="paint0_linear" x1="300.215" y1="546.094" x2="346.386" y2="535.296" gradientUnits="userSpaceOnUse">
<stop stop-color="#7379E7"/>
<stop offset="1" stop-color="#5056DE"/>
</linearGradient>
<linearGradient id="paint1_linear" x1="270.215" y1="535.094" x2="316.386" y2="524.296" gradientUnits="userSpaceOnUse">
<stop stop-color="#7379E7"/>
<stop offset="1" stop-color="#5056DE"/>
</linearGradient>
<linearGradient id="paint2_linear" x1="91.2148" y1="603.094" x2="137.386" y2="592.296" gradientUnits="userSpaceOnUse">
<stop stop-color="#7379E7"/>
<stop offset="1" stop-color="#5056DE"/>
</linearGradient>
<linearGradient id="paint3_linear" x1="270.215" y1="558.094" x2="316.386" y2="547.296" gradientUnits="userSpaceOnUse">
<stop stop-color="#7379E7"/>
<stop offset="1" stop-color="#5056DE"/>
</linearGradient>
<linearGradient id="paint4_linear" x1="62.2148" y1="623.094" x2="108.386" y2="612.296" gradientUnits="userSpaceOnUse">
<stop stop-color="#7379E7"/>
<stop offset="1" stop-color="#5056DE"/>
</linearGradient>
<linearGradient id="paint5_linear" x1="966.215" y1="200.094" x2="1012.39" y2="189.296" gradientUnits="userSpaceOnUse">
<stop stop-color="#7379E7"/>
<stop offset="1" stop-color="#5056DE"/>
</linearGradient>
</defs>
</svg>
