<svg width="231" height="58" viewBox="0 0 231 58" fill="none" xmlns="http://www.w3.org/2000/svg">
<g id="logo 1">
<g id="Group 41">
<path id="Vector" d="M25.9189 19H34.4138C36.6195 19 38.5668 19.45 40.2558 20.35C41.9449 21.23 43.2564 22.47 44.1903 24.07C45.1242 25.65 45.5912 27.46 45.5912 29.5C45.5912 31.54 45.1242 33.36 44.1903 34.96C43.2564 36.54 41.9449 37.78 40.2558 38.68C38.5668 39.56 36.6195 40 34.4138 40H25.9189V19ZM34.2946 38.08C36.1227 38.08 37.7223 37.72 39.0934 37C40.4645 36.26 41.5276 35.25 42.2827 33.97C43.0378 32.67 43.4153 31.18 43.4153 29.5C43.4153 27.82 43.0378 26.34 42.2827 25.06C41.5276 23.76 40.4645 22.75 39.0934 22.03C37.7223 21.29 36.1227 20.92 34.2946 20.92H28.1246V38.08H34.2946ZM56.5053 40.15C54.9951 40.15 53.634 39.81 52.4219 39.13C51.2097 38.43 50.2559 37.47 49.5606 36.25C48.8651 35.03 48.5174 33.65 48.5174 32.11C48.5174 30.57 48.8651 29.19 49.5606 27.97C50.2559 26.75 51.2097 25.8 52.4219 25.12C53.634 24.44 54.9951 24.1 56.5053 24.1C58.0155 24.1 59.3767 24.44 60.5888 25.12C61.8009 25.8 62.7448 26.75 63.4204 27.97C64.1159 29.19 64.4637 30.57 64.4637 32.11C64.4637 33.65 64.1159 35.03 63.4204 36.25C62.7448 37.47 61.8009 38.43 60.5888 39.13C59.3767 39.81 58.0155 40.15 56.5053 40.15ZM56.5053 38.26C57.6181 38.26 58.6117 38.01 59.486 37.51C60.3802 36.99 61.0757 36.26 61.5724 35.32C62.0692 34.38 62.3176 33.31 62.3176 32.11C62.3176 30.91 62.0692 29.84 61.5724 28.9C61.0757 27.96 60.3802 27.24 59.486 26.74C58.6117 26.22 57.6181 25.96 56.5053 25.96C55.3926 25.96 54.3891 26.22 53.4949 26.74C52.6206 27.24 51.9251 27.96 51.4084 28.9C50.9117 29.84 50.6633 30.91 50.6633 32.11C50.6633 33.31 50.9117 34.38 51.4084 35.32C51.9251 36.26 52.6206 36.99 53.4949 37.51C54.3891 38.01 55.3926 38.26 56.5053 38.26ZM76.8616 24.1C78.3321 24.1 79.6635 24.44 80.8557 25.12C82.048 25.78 82.9819 26.72 83.6575 27.94C84.3331 29.16 84.6709 30.55 84.6709 32.11C84.6709 33.67 84.3331 35.06 83.6575 36.28C82.9819 37.5 82.048 38.45 80.8557 39.13C79.6635 39.81 78.3321 40.15 76.8616 40.15C75.5502 40.15 74.3678 39.87 73.3147 39.31C72.2814 38.75 71.4468 37.94 70.8109 36.88V40H68.7841V17.74H70.9004V27.22C71.5561 26.2 72.3907 25.43 73.4041 24.91C74.4374 24.37 75.5899 24.1 76.8616 24.1ZM76.7126 38.26C77.8055 38.26 78.7991 38.01 79.6933 37.51C80.5875 36.99 81.2829 36.26 81.7797 35.32C82.2964 34.38 82.5547 33.31 82.5547 32.11C82.5547 30.91 82.2964 29.84 81.7797 28.9C81.2829 27.96 80.5875 27.24 79.6933 26.74C78.7991 26.22 77.8055 25.96 76.7126 25.96C75.5998 25.96 74.5964 26.22 73.7022 26.74C72.8278 27.24 72.1324 27.96 71.6157 28.9C71.1189 29.84 70.8706 30.91 70.8706 32.11C70.8706 33.31 71.1189 34.38 71.6157 35.32C72.1324 36.26 72.8278 36.99 73.7022 37.51C74.5964 38.01 75.5998 38.26 76.7126 38.26ZM91.0123 27.31C91.509 26.25 92.2443 25.45 93.2179 24.91C94.2115 24.37 95.4336 24.1 96.8841 24.1V26.17L96.3774 26.14C94.7281 26.14 93.4365 26.65 92.5026 27.67C91.5686 28.69 91.1017 30.12 91.1017 31.96V40H88.9854V24.22H91.0123V27.31ZM114.559 24.22L106.72 41.89C106.084 43.37 105.349 44.42 104.515 45.04C103.68 45.66 102.677 45.97 101.504 45.97C100.749 45.97 100.044 45.85 99.3879 45.61C98.7321 45.37 98.1658 45.01 97.6889 44.53L98.6725 42.94C99.4674 43.74 100.421 44.14 101.534 44.14C102.249 44.14 102.855 43.94 103.352 43.54C103.869 43.14 104.346 42.46 104.783 41.5L105.468 39.97L98.4639 24.22H100.67L106.571 37.63L112.473 24.22H114.559Z" fill="white"/>
<path id="Vector_2" d="M128.785 40.24C126.678 40.24 124.781 39.78 123.092 38.86C121.403 37.92 120.071 36.63 119.098 34.99C118.144 33.35 117.667 31.52 117.667 29.5C117.667 27.48 118.144 25.65 119.098 24.01C120.071 22.37 121.403 21.09 123.092 20.17C124.781 19.23 126.678 18.76 128.785 18.76C130.871 18.76 132.759 19.23 134.448 20.17C136.137 21.09 137.458 22.37 138.412 24.01C139.366 25.63 139.843 27.46 139.843 29.5C139.843 31.54 139.366 33.38 138.412 35.02C137.458 36.64 136.137 37.92 134.448 38.86C132.759 39.78 130.871 40.24 128.785 40.24ZM128.785 37.57C130.315 37.57 131.686 37.22 132.898 36.52C134.13 35.82 135.094 34.86 135.789 33.64C136.505 32.4 136.862 31.02 136.862 29.5C136.862 27.98 136.505 26.61 135.789 25.39C135.094 24.15 134.13 23.18 132.898 22.48C131.686 21.78 130.315 21.43 128.785 21.43C127.255 21.43 125.864 21.78 124.612 22.48C123.38 23.18 122.406 24.15 121.691 25.39C120.995 26.61 120.648 27.98 120.648 29.5C120.648 31.02 120.995 32.4 121.691 33.64C122.406 34.86 123.38 35.82 124.612 36.52C125.864 37.22 127.255 37.57 128.785 37.57ZM152.357 23.95C153.887 23.95 155.258 24.29 156.471 24.97C157.683 25.65 158.627 26.6 159.302 27.82C159.998 29.04 160.345 30.45 160.345 32.05C160.345 33.65 159.998 35.07 159.302 36.31C158.627 37.53 157.683 38.48 156.471 39.16C155.258 39.84 153.887 40.18 152.357 40.18C151.225 40.18 150.181 39.96 149.228 39.52C148.294 39.08 147.499 38.44 146.843 37.6V45.82H143.982V24.1H146.724V26.62C147.36 25.74 148.164 25.08 149.138 24.64C150.112 24.18 151.185 23.95 152.357 23.95ZM152.119 37.66C153.132 37.66 154.036 37.43 154.831 36.97C155.646 36.49 156.282 35.83 156.739 34.99C157.216 34.13 157.454 33.15 157.454 32.05C157.454 30.95 157.216 29.98 156.739 29.14C156.282 28.28 155.646 27.62 154.831 27.16C154.036 26.7 153.132 26.47 152.119 26.47C151.125 26.47 150.221 26.71 149.406 27.19C148.612 27.65 147.976 28.3 147.499 29.14C147.042 29.98 146.813 30.95 146.813 32.05C146.813 33.15 147.042 34.13 147.499 34.99C147.956 35.83 148.592 36.49 149.406 36.97C150.221 37.43 151.125 37.66 152.119 37.66ZM173.181 39.07C172.764 39.43 172.247 39.71 171.631 39.91C171.015 40.09 170.379 40.18 169.723 40.18C168.134 40.18 166.902 39.75 166.027 38.89C165.153 38.03 164.716 36.8 164.716 35.2V26.47H162.033V24.1H164.716V20.62H167.577V24.1H172.108V26.47H167.577V35.08C167.577 35.94 167.786 36.6 168.203 37.06C168.64 37.52 169.257 37.75 170.051 37.75C170.926 37.75 171.671 37.5 172.287 37L173.181 39.07ZM190.329 24.1L182.668 41.59C181.993 43.21 181.198 44.35 180.284 45.01C179.39 45.67 178.307 46 177.035 46C176.26 46 175.505 45.87 174.77 45.61C174.054 45.37 173.458 45.01 172.981 44.53L174.203 42.37C175.018 43.15 175.962 43.54 177.035 43.54C177.73 43.54 178.307 43.35 178.764 42.97C179.241 42.61 179.668 41.98 180.045 41.08L180.552 39.97L173.577 24.1H176.558L182.072 36.82L187.527 24.1H190.329ZM199.139 32.59L195.861 35.65V40H192.999V17.74H195.861V32.02L204.475 24.1H207.932L201.286 30.67L208.588 40H205.071L199.139 32.59Z" fill="white"/>
</g>
<path id="Vector_3" d="M104.98 17.5358C89.8504 21.9341 80.2239 13.1527 71.0386 6.85352C80.5901 12.2602 85.3407 14.7815 99.3254 11.9525C113.31 9.12362 135.42 6.77711 160.317 24.5693C139.968 14.1852 120.109 13.1375 104.98 17.5358Z" fill="#BB3948"/>
</g>
</svg>
